Coordinates
version=1
nRows=38
nColumns=12
inDegrees=yes

Units are S.I. units (second, meters, Newtons, ...)
Angles are in degrees

endheader
time	SC_y	SC_z	SC_x	AC_y	AC_z	AC_x	GH_y	GH_z	GH_yy	EL_x	PS_y
       0.0              -30.78          39.74          41.09          60.47         -5.171         -10.02         -2.186          55.91          26.55          128.2          150.1
   0.01119              -30.78          39.74          41.09          60.47         -5.171         -10.02         -2.168          55.91          26.54          128.2          150.1
   0.02238              -30.78          39.73          41.08          60.46         -5.171         -10.02         -2.149           55.9          26.53          128.1          150.1
   0.03357              -30.78          39.73          41.08          60.46         -5.171         -10.02         -2.128           55.9          26.52          128.1          150.1
   0.04477              -30.78          39.72          41.08          60.45         -5.171         -10.02         -2.106          55.89          26.51          128.1          150.0
   0.05596              -30.77          39.71          41.07          60.45         -5.171         -10.02         -2.083          55.89          26.49          128.1          150.0
   0.06715              -30.77          39.71          41.07          60.44         -5.171         -10.02         -2.058          55.88          26.48          128.1          150.0
   0.07834              -30.77           39.7          41.07          60.43         -5.171         -10.02         -2.031          55.88          26.47          128.1          150.0
   0.08953              -30.77          39.69          41.06          60.43         -5.171         -10.02         -2.002          55.87          26.45          128.1          149.9
    0.1007              -30.76          39.68          41.06          60.42         -5.171         -10.02         -1.972          55.87          26.43          128.0          149.9
    0.1119              -30.76          39.67          41.05          60.41         -5.171         -10.02         -1.939          55.86          26.42          128.0          149.9
    0.1231              -30.76          39.66          41.05           60.4         -5.171         -10.02         -1.903          55.85           26.4          128.0          149.8
    0.1343              -30.75          39.65          41.04          60.39         -5.171         -10.02         -1.865          55.84          26.38          128.0          149.8
    0.1455              -30.75          39.64          41.03          60.38          -5.17         -10.02         -1.824          55.83          26.36          128.0          149.8
    0.1567              -30.74          39.62          41.03          60.37          -5.17         -10.02         -1.779          55.82          26.33          127.9          149.7
    0.1679              -30.74          39.61          41.02          60.36          -5.17         -10.01         -1.731          55.81           26.3          127.9          149.7
    0.1791              -30.73          39.59          41.01          60.35          -5.17         -10.01         -1.678           55.8          26.28          127.9          149.6
    0.1903              -30.73          39.58           41.0          60.33          -5.17         -10.01         -1.621          55.79          26.25          127.9          149.6
    0.2014              -30.72          39.56          40.99          60.32          -5.17         -10.01         -1.558          55.77          26.21          127.8          149.5
    0.2126              -30.71          39.54          40.98           60.3          -5.17         -10.01          -1.49          55.76          26.18          127.8          149.4
    0.2238               -30.7          39.52          40.97          60.28          -5.17         -10.01         -1.415          55.74          26.13          127.8          149.4
     0.235               -30.7          39.49          40.96          60.26         -5.169         -10.01         -1.332          55.72          26.09          127.7          149.3
    0.2462              -30.69          39.47          40.94          60.24         -5.169          -10.0          -1.24           55.7          26.04          127.7          149.2
    0.2574              -30.68          39.44          40.93          60.22         -5.169          -10.0         -1.139          55.68          25.99          127.6          149.1
    0.2686              -30.66           39.4          40.91          60.19         -5.169         -9.999         -1.026          55.66          25.93          127.5          149.0
    0.2798              -30.65          39.37          40.89          60.16         -5.168         -9.996        -0.9006          55.63          25.86          127.5          148.9
     0.291              -30.64          39.32          40.87          60.13         -5.168         -9.993        -0.7597           55.6          25.78          127.4          148.7
    0.3022              -30.62          39.28          40.85          60.09         -5.168         -9.989        -0.6013          55.56           25.7          127.3          148.6
    0.3134               -30.6          39.22          40.82          60.05         -5.167         -9.985        -0.4223          55.52           25.6          127.2          148.4
    0.3245              -30.58          39.17          40.79           60.0         -5.167         -9.981         -0.219          55.48          25.49          127.1          148.2
    0.3357              -30.56           39.1          40.75          59.94         -5.166         -9.976          0.013          55.43          25.37          127.0          148.0
    0.3469              -30.53          39.02          40.71          59.88         -5.166          -9.97         0.2793          55.37          25.22          126.9          147.7
    0.3581               -30.5          38.93          40.66           59.8         -5.165         -9.964         0.5866           55.3          25.06          126.7          147.4
    0.3693              -30.46          38.82          40.61          59.72         -5.164         -9.956         0.9438          55.22          24.86          126.5          147.1
    0.3805              -30.41           38.7          40.55          59.62         -5.163         -9.947          1.362          55.13          24.64          126.3          146.7
    0.3917              -30.36          38.55          40.47           59.5         -5.162         -9.936          1.854          55.02          24.37          126.0          146.2
    0.4029               -30.3          38.38          40.38          59.36         -5.161         -9.923           2.44          54.89          24.06          125.7          145.6
    0.4141              -30.23          38.18          40.27          59.19         -5.159         -9.908          3.142          54.73          23.68          125.3          144.9
